<?xml version="1.0" standalone="no"?>
<!DOCTYPE svg PUBLIC "-//W3C//DTD SVG 20010904//EN"
 "http://www.w3.org/TR/2001/REC-SVG-20010904/DTD/svg10.dtd">
<svg version="1.0" xmlns="http://www.w3.org/2000/svg"
 width="128.000000pt" height="128.000000pt" viewBox="0 0 128.000000 128.000000"
 preserveAspectRatio="xMidYMid meet">
<metadata>
Created by potrace 1.16, written by Peter Selinger 2001-2019
</metadata>
<g transform="translate(0.000000,128.000000) scale(0.100000,-0.100000)"
fill="#000000" stroke="none">
<path d="M352 830 c-69 -25 -122 -58 -122 -76 0 -27 26 -25 91 6 51 24 77 30
130 30 70 0 60 4 251 -97 86 -46 218 -39 328 17 83 42 62 86 -22 47 -142 -67
-226 -63 -349 16 -65 42 -167 77 -218 76 -20 0 -60 -9 -89 -19z"/>
<path d="M345 672 c-51 -17 -115 -57 -115 -71 0 -4 5 -12 11 -18 9 -9 27 -4
73 20 53 27 71 32 136 31 68 0 81 -3 145 -38 156 -86 160 -88 233 -88 103 -1
252 53 252 91 0 25 -23 33 -46 17 -11 -8 -47 -23 -81 -36 -49 -17 -78 -21
-135 -19 -66 4 -80 8 -142 48 -126 79 -228 99 -331 63z"/>
<path d="M370 524 c-66 -18 -140 -60 -140 -79 0 -27 23 -27 78 1 44 23 74 30
132 32 70 3 79 1 145 -33 39 -21 93 -49 120 -64 43 -22 62 -26 135 -25 71 0
96 5 154 30 74 31 99 55 79 75 -10 10 -28 5 -80 -19 -124 -57 -219 -53 -321
14 -110 72 -209 94 -302 68z"/>
</g>
</svg>
